<svg xmlns="http://www.w3.org/2000/svg" viewBox="0 0 512 512" width="100%" height="100%">
  <defs>
    <linearGradient id="bgGrad" x1="0%" y1="0%" x2="100%" y2="100%">
      <stop offset="0%" stop-color="#2563eb" />
      <stop offset="100%" stop-color="#1e3a8a" />
    </linearGradient>
    <linearGradient id="docGrad" x1="0%" y1="0%" x2="100%" y2="100%">
      <stop offset="0%" stop-color="#ffffff" />
      <stop offset="100%" stop-color="#eff6ff" />
    </linearGradient>
  </defs>
  <!-- Rounded App Background -->
  <rect width="512" height="512" rx="128" fill="url(#bgGrad)"/>
  <!-- Decorative Grid Lines -->
  <circle cx="256" cy="256" r="220" fill="none" stroke="rgba(255,255,255,0.05)" stroke-width="12" />
  <circle cx="256" cy="256" r="160" fill="none" stroke="rgba(255,255,255,0.03)" stroke-width="8" />
  <!-- Document Shape -->
  <path d="M160 110C160 98.9543 168.954 90 180 90H300L352 142V402C352 413.046 343.046 422 332 422H180C168.954 422 160 413.046 160 402V110Z" fill="url(#docGrad)" filter="drop-shadow(0px 8px 16px rgba(0,0,0,0.15))"/>
  <!-- Folded Corner -->
  <path d="M300 90V132C300 137.523 304.477 142 310 142H352L300 90Z" fill="#dbeafe"/>
  <!-- Invoice Lines -->
  <rect x="192" y="180" width="128" height="16" rx="4" fill="#3b82f6" opacity="0.9"/>
  <rect x="192" y="224" width="128" height="12" rx="3" fill="#9ca3af" opacity="0.6"/>
  <rect x="192" y="256" width="96" height="12" rx="3" fill="#9ca3af" opacity="0.6"/>
  <!-- Success checkmark -->
  <path d="M220 330 L245 355 L295 305" fill="none" stroke="#10b981" stroke-width="14" stroke-linecap="round" stroke-linejoin="round" />
</svg>
